<mxfile host="app.diagrams.net" agent="Mozilla/5.0 (Windows NT 10.0; Win64; x64) AppleWebKit/537.36 (KHTML, like Gecko) Chrome/135.0.0.0 Safari/537.36 Edg/135.0.0.0" version="27.0.1">
  <diagram name="4+1 Architecture - Algorithm Control System" id="xXr_PGFwqbxWnIFbSs2_">
    <mxGraphModel dx="1418" dy="794" grid="1" gridSize="10" guides="1" tooltips="1" connect="1" arrows="1" fold="1" page="1" pageScale="1" pageWidth="827" pageHeight="1169" math="0" shadow="0">
      <root>
        <mxCell id="0" />
        <mxCell id="_tUC9OMfFhQJSuKilUQU-2" value="Logical View" style="layer" parent="0" />
        <mxCell id="_tUC9OMfFhQJSuKilUQU-3" value="Logical View（逻辑视图）" style="text;html=1;fontSize=18;fontStyle=1;" parent="_tUC9OMfFhQJSuKilUQU-2" vertex="1">
          <mxGeometry x="20" y="20" width="300" height="30" as="geometry" />
        </mxCell>
        <mxCell id="_tUC9OMfFhQJSuKilUQU-4" value="算法训练平台" style="swimlane;fillColor=#dae8fc;" parent="_tUC9OMfFhQJSuKilUQU-2" vertex="1">
          <mxGeometry x="20" y="60" width="200" height="140" as="geometry" />
        </mxCell>
        <mxCell id="_tUC9OMfFhQJSuKilUQU-5" value="云边管理系统&#xa;- 算法管理&#xa;- 设备管理&#xa;- 数据管理" style="swimlane;fillColor=#e1d5e7;" parent="_tUC9OMfFhQJSuKilUQU-2" vertex="1">
          <mxGeometry x="240" y="60" width="200" height="140" as="geometry" />
        </mxCell>
        <mxCell id="_tUC9OMfFhQJSuKilUQU-6" value="可视化编程平台&#xa;- 编辑器&#xa;- 编译器" style="swimlane;fillColor=#fff2cc;" parent="_tUC9OMfFhQJSuKilUQU-2" vertex="1">
          <mxGeometry x="460" y="60" width="200" height="140" as="geometry" />
        </mxCell>
        <mxCell id="_tUC9OMfFhQJSuKilUQU-7" value="边缘控制器&#xa;- 算法执行&#xa;- PID 控制" style="swimlane;fillColor=#d5e8d4;" parent="_tUC9OMfFhQJSuKilUQU-2" vertex="1">
          <mxGeometry x="680" y="60" width="200" height="140" as="geometry" />
        </mxCell>
        <mxCell id="_tUC9OMfFhQJSuKilUQU-8" value="中央空调&#xa;（被控设备）" style="swimlane;fillColor=#f8cecc;" parent="_tUC9OMfFhQJSuKilUQU-2" vertex="1">
          <mxGeometry x="900" y="60" width="200" height="140" as="geometry" />
        </mxCell>
        <mxCell id="rOiwIOtUpXCxI_GH9-Qb-0" value="" style="swimlane;startSize=0;" vertex="1" parent="_tUC9OMfFhQJSuKilUQU-2">
          <mxGeometry x="490" y="350" width="200" height="200" as="geometry" />
        </mxCell>
        <mxCell id="_tUC9OMfFhQJSuKilUQU-9" value="Development View" style="layer" parent="0" visible="0" />
        <mxCell id="_tUC9OMfFhQJSuKilUQU-10" value="Development View（开发视图）" style="text;html=1;fontSize=18;fontStyle=1;" parent="_tUC9OMfFhQJSuKilUQU-9" vertex="1">
          <mxGeometry x="20" y="20" width="300" height="30" as="geometry" />
        </mxCell>
        <mxCell id="_tUC9OMfFhQJSuKilUQU-11" value="算法训练服务（TrainerService）" style="rounded=1;whiteSpace=wrap;html=1;fillColor=#dae8fc;" parent="_tUC9OMfFhQJSuKilUQU-9" vertex="1">
          <mxGeometry x="20" y="60" width="200" height="80" as="geometry" />
        </mxCell>
        <mxCell id="_tUC9OMfFhQJSuKilUQU-12" value="算法管理服务（AlgoManager）" style="rounded=1;whiteSpace=wrap;html=1;fillColor=#e1d5e7;" parent="_tUC9OMfFhQJSuKilUQU-9" vertex="1">
          <mxGeometry x="240" y="60" width="200" height="80" as="geometry" />
        </mxCell>
        <mxCell id="_tUC9OMfFhQJSuKilUQU-13" value="设备管理服务（DeviceManager）" style="rounded=1;whiteSpace=wrap;html=1;fillColor=#e1d5e7;" parent="_tUC9OMfFhQJSuKilUQU-9" vertex="1">
          <mxGeometry x="240" y="160" width="200" height="80" as="geometry" />
        </mxCell>
        <mxCell id="_tUC9OMfFhQJSuKilUQU-14" value="编程 IDE 服务（IDEEngine）" style="rounded=1;whiteSpace=wrap;html=1;fillColor=#fff2cc;" parent="_tUC9OMfFhQJSuKilUQU-9" vertex="1">
          <mxGeometry x="460" y="60" width="200" height="80" as="geometry" />
        </mxCell>
        <mxCell id="_tUC9OMfFhQJSuKilUQU-15" value="边缘执行服务（EdgeRuntime）" style="rounded=1;whiteSpace=wrap;html=1;fillColor=#d5e8d4;" parent="_tUC9OMfFhQJSuKilUQU-9" vertex="1">
          <mxGeometry x="680" y="60" width="200" height="80" as="geometry" />
        </mxCell>
        <mxCell id="_tUC9OMfFhQJSuKilUQU-16" value="PID 控制模块（PIDController）" style="rounded=1;whiteSpace=wrap;html=1;fillColor=#d5e8d4;" parent="_tUC9OMfFhQJSuKilUQU-9" vertex="1">
          <mxGeometry x="680" y="160" width="200" height="80" as="geometry" />
        </mxCell>
        <mxCell id="_tUC9OMfFhQJSuKilUQU-17" value="Process View" style="layer" parent="0" visible="0" />
        <mxCell id="_tUC9OMfFhQJSuKilUQU-18" value="Process View（流程视图）" style="text;html=1;fontSize=18;fontStyle=1;" parent="_tUC9OMfFhQJSuKilUQU-17" vertex="1">
          <mxGeometry x="20" y="20" width="300" height="30" as="geometry" />
        </mxCell>
        <mxCell id="_tUC9OMfFhQJSuKilUQU-19" value="模型训练完成" style="ellipse;whiteSpace=wrap;html=1;fillColor=#dae8fc;" parent="_tUC9OMfFhQJSuKilUQU-17" vertex="1">
          <mxGeometry x="20" y="80" width="140" height="60" as="geometry" />
        </mxCell>
        <mxCell id="_tUC9OMfFhQJSuKilUQU-20" value="上传算法包至管理系统" style="rounded=1;whiteSpace=wrap;html=1;" parent="_tUC9OMfFhQJSuKilUQU-17" vertex="1">
          <mxGeometry x="180" y="80" width="180" height="60" as="geometry" />
        </mxCell>
        <mxCell id="_tUC9OMfFhQJSuKilUQU-21" value="配置算法参数" style="rounded=1;whiteSpace=wrap;html=1;" parent="_tUC9OMfFhQJSuKilUQU-17" vertex="1">
          <mxGeometry x="380" y="80" width="140" height="60" as="geometry" />
        </mxCell>
        <mxCell id="_tUC9OMfFhQJSuKilUQU-22" value="下发算法包到边缘控制器" style="rounded=1;whiteSpace=wrap;html=1;" parent="_tUC9OMfFhQJSuKilUQU-17" vertex="1">
          <mxGeometry x="540" y="80" width="180" height="60" as="geometry" />
        </mxCell>
        <mxCell id="_tUC9OMfFhQJSuKilUQU-23" value="编程 IDE 编辑控制逻辑" style="rounded=1;whiteSpace=wrap;html=1;" parent="_tUC9OMfFhQJSuKilUQU-17" vertex="1">
          <mxGeometry x="740" y="80" width="180" height="60" as="geometry" />
        </mxCell>
        <mxCell id="_tUC9OMfFhQJSuKilUQU-24" value="控制器执行预测 + PID 控制" style="rounded=1;whiteSpace=wrap;html=1;" parent="_tUC9OMfFhQJSuKilUQU-17" vertex="1">
          <mxGeometry x="940" y="80" width="200" height="60" as="geometry" />
        </mxCell>
        <mxCell id="_tUC9OMfFhQJSuKilUQU-25" value="调节中央空调" style="ellipse;whiteSpace=wrap;html=1;fillColor=#f8cecc;" parent="_tUC9OMfFhQJSuKilUQU-17" vertex="1">
          <mxGeometry x="1160" y="80" width="120" height="60" as="geometry" />
        </mxCell>
        <mxCell id="_tUC9OMfFhQJSuKilUQU-26" style="edgeStyle=orthogonalEdgeStyle;endArrow=block;" parent="_tUC9OMfFhQJSuKilUQU-17" source="_tUC9OMfFhQJSuKilUQU-19" target="_tUC9OMfFhQJSuKilUQU-20" edge="1">
          <mxGeometry relative="1" as="geometry" />
        </mxCell>
        <mxCell id="_tUC9OMfFhQJSuKilUQU-27" style="edgeStyle=orthogonalEdgeStyle;endArrow=block;" parent="_tUC9OMfFhQJSuKilUQU-17" source="_tUC9OMfFhQJSuKilUQU-20" target="_tUC9OMfFhQJSuKilUQU-21" edge="1">
          <mxGeometry relative="1" as="geometry" />
        </mxCell>
        <mxCell id="_tUC9OMfFhQJSuKilUQU-28" style="edgeStyle=orthogonalEdgeStyle;endArrow=block;" parent="_tUC9OMfFhQJSuKilUQU-17" source="_tUC9OMfFhQJSuKilUQU-21" target="_tUC9OMfFhQJSuKilUQU-22" edge="1">
          <mxGeometry relative="1" as="geometry" />
        </mxCell>
        <mxCell id="_tUC9OMfFhQJSuKilUQU-29" style="edgeStyle=orthogonalEdgeStyle;endArrow=block;" parent="_tUC9OMfFhQJSuKilUQU-17" source="_tUC9OMfFhQJSuKilUQU-22" target="_tUC9OMfFhQJSuKilUQU-23" edge="1">
          <mxGeometry relative="1" as="geometry" />
        </mxCell>
        <mxCell id="_tUC9OMfFhQJSuKilUQU-30" style="edgeStyle=orthogonalEdgeStyle;endArrow=block;" parent="_tUC9OMfFhQJSuKilUQU-17" source="_tUC9OMfFhQJSuKilUQU-23" target="_tUC9OMfFhQJSuKilUQU-24" edge="1">
          <mxGeometry relative="1" as="geometry" />
        </mxCell>
        <mxCell id="_tUC9OMfFhQJSuKilUQU-31" style="edgeStyle=orthogonalEdgeStyle;endArrow=block;" parent="_tUC9OMfFhQJSuKilUQU-17" source="_tUC9OMfFhQJSuKilUQU-24" target="_tUC9OMfFhQJSuKilUQU-25" edge="1">
          <mxGeometry relative="1" as="geometry" />
        </mxCell>
        <mxCell id="_tUC9OMfFhQJSuKilUQU-32" value="Physical View" style="layer" parent="0" visible="0" />
        <mxCell id="_tUC9OMfFhQJSuKilUQU-33" value="Physical View（部署视图）" style="text;html=1;fontSize=18;fontStyle=1;" parent="_tUC9OMfFhQJSuKilUQU-32" vertex="1">
          <mxGeometry x="20" y="20" width="300" height="30" as="geometry" />
        </mxCell>
        <mxCell id="_tUC9OMfFhQJSuKilUQU-34" value="云平台" style="swimlane;fillColor=#e1d5e7;" parent="_tUC9OMfFhQJSuKilUQU-32" vertex="1">
          <mxGeometry x="20" y="60" width="250" height="180" as="geometry" />
        </mxCell>
        <mxCell id="_tUC9OMfFhQJSuKilUQU-35" value="边缘控制器" style="swimlane;fillColor=#d5e8d4;" parent="_tUC9OMfFhQJSuKilUQU-32" vertex="1">
          <mxGeometry x="300" y="60" width="200" height="180" as="geometry" />
        </mxCell>
        <mxCell id="_tUC9OMfFhQJSuKilUQU-36" value="被控设备\n中央空调" style="swimlane;fillColor=#f8cecc;" parent="_tUC9OMfFhQJSuKilUQU-32" vertex="1">
          <mxGeometry x="520" y="60" width="200" height="180" as="geometry" />
        </mxCell>
        <mxCell id="_tUC9OMfFhQJSuKilUQU-37" value="Scenario View" style="layer" parent="0" visible="0" />
        <mxCell id="_tUC9OMfFhQJSuKilUQU-38" value="Scenario View（使用场景）" style="text;html=1;fontSize=18;fontStyle=1;" parent="_tUC9OMfFhQJSuKilUQU-37" vertex="1">
          <mxGeometry x="20" y="20" width="300" height="30" as="geometry" />
        </mxCell>
        <mxCell id="_tUC9OMfFhQJSuKilUQU-39" value="算法平台" style="swimlane;horizontal=0;fillColor=#dae8fc;" parent="_tUC9OMfFhQJSuKilUQU-37" vertex="1">
          <mxGeometry x="20" y="60" width="200" height="300" as="geometry" />
        </mxCell>
        <mxCell id="_tUC9OMfFhQJSuKilUQU-40" value="云边平台" style="swimlane;horizontal=0;fillColor=#e1d5e7;" parent="_tUC9OMfFhQJSuKilUQU-37" vertex="1">
          <mxGeometry x="220" y="60" width="200" height="300" as="geometry" />
        </mxCell>
        <mxCell id="_tUC9OMfFhQJSuKilUQU-41" value="可视化编程" style="swimlane;horizontal=0;fillColor=#fff2cc;" parent="_tUC9OMfFhQJSuKilUQU-37" vertex="1">
          <mxGeometry x="420" y="60" width="200" height="300" as="geometry" />
        </mxCell>
        <mxCell id="_tUC9OMfFhQJSuKilUQU-42" value="边缘控制器" style="swimlane;horizontal=0;fillColor=#d5e8d4;" parent="_tUC9OMfFhQJSuKilUQU-37" vertex="1">
          <mxGeometry x="620" y="60" width="200" height="300" as="geometry" />
        </mxCell>
        <mxCell id="_tUC9OMfFhQJSuKilUQU-43" value="中央空调" style="swimlane;horizontal=0;fillColor=#f8cecc;" parent="_tUC9OMfFhQJSuKilUQU-37" vertex="1">
          <mxGeometry x="820" y="60" width="200" height="300" as="geometry" />
        </mxCell>
      </root>
    </mxGraphModel>
  </diagram>
</mxfile>
